<svg xmlns="http://www.w3.org/2000/svg" version="1.1" xmlns:xlink="http://www.w3.org/1999/xlink" xmlns:svgjs="http://svgjs.dev/svgjs" viewBox="0 0 1422 800" opacity="0.81"><g stroke-width="1" stroke="#407bff" fill="none" stroke-linecap="round"><path d="M 0 380 Q 355.5 220 711 400 Q 1066.5 580 1422 380" opacity="1.00"></path><path d="M 0 361 Q 355.5 220 711 400 Q 1066.5 580 1422 361" opacity="0.95"></path><path d="M 0 342 Q 355.5 220 711 400 Q 1066.5 580 1422 342" opacity="0.90"></path><path d="M 0 323 Q 355.5 220 711 400 Q 1066.5 580 1422 323" opacity="0.85"></path><path d="M 0 304 Q 355.5 220 711 400 Q 1066.5 580 1422 304" opacity="0.80"></path><path d="M 0 285 Q 355.5 220 711 400 Q 1066.5 580 1422 285" opacity="0.75"></path><path d="M 0 266 Q 355.5 220 711 400 Q 1066.5 580 1422 266" opacity="0.70"></path><path d="M 0 247 Q 355.5 220 711 400 Q 1066.5 580 1422 247" opacity="0.65"></path><path d="M 0 228 Q 355.5 220 711 400 Q 1066.5 580 1422 228" opacity="0.60"></path><path d="M 0 209 Q 355.5 220 711 400 Q 1066.5 580 1422 209" opacity="0.55"></path><path d="M 0 190 Q 355.5 220 711 400 Q 1066.5 580 1422 190" opacity="0.50"></path><path d="M 0 171 Q 355.5 220 711 400 Q 1066.5 580 1422 171" opacity="0.45"></path><path d="M 0 152 Q 355.5 220 711 400 Q 1066.5 580 1422 152" opacity="0.40"></path><path d="M 0 133 Q 355.5 220 711 400 Q 1066.5 580 1422 133" opacity="0.35"></path><path d="M 0 114 Q 355.5 220 711 400 Q 1066.5 580 1422 114" opacity="0.30"></path><path d="M 0 95 Q 355.5 220 711 400 Q 1066.5 580 1422 95" opacity="0.25"></path><path d="M 0 76 Q 355.5 220 711 400 Q 1066.5 580 1422 76" opacity="0.20"></path><path d="M 0 57 Q 355.5 220 711 400 Q 1066.5 580 1422 57" opacity="0.15"></path><path d="M 0 38 Q 355.5 220 711 400 Q 1066.5 580 1422 38" opacity="0.10"></path></g></svg>